<?xml version="1.0" encoding="utf-8"?>
<!-- Generator: Adobe Illustrator 21.0.0, SVG Export Plug-In . SVG Version: 6.00 Build 0)  -->
<svg version="1.1" id="Layer_1" xmlns="http://www.w3.org/2000/svg" xmlns:xlink="http://www.w3.org/1999/xlink" x="0px" y="0px"
	 viewBox="0 0 16 16" style="enable-background:new 0 0 16 16;" xml:space="preserve">
<style type="text/css">
	.st0{fill:#1DA1F2;}
</style>
<g id="layer1" transform="translate(-539.17946,-568.85777)">
	<path id="path3611" class="st0" d="M544.7,581.7c5,0,7.7-4.1,7.7-7.7c0-0.1,0-0.2,0-0.3c0.5-0.4,1-0.9,1.3-1.4
		c-0.5,0.2-1,0.4-1.6,0.4c0.6-0.3,1-0.9,1.2-1.5c-0.5,0.3-1.1,0.5-1.7,0.7c-0.5-0.5-1.2-0.9-2-0.9c-1.5,0-2.7,1.2-2.7,2.7
		c0,0.2,0,0.4,0.1,0.6c-2.2-0.1-4.2-1.2-5.6-2.8c-0.2,0.4-0.4,0.9-0.4,1.4c0,0.9,0.5,1.8,1.2,2.2c-0.4,0-0.9-0.1-1.2-0.3
		c0,0,0,0,0,0c0,1.3,0.9,2.4,2.2,2.6c-0.2,0.1-0.5,0.1-0.7,0.1c-0.2,0-0.3,0-0.5,0c0.3,1.1,1.3,1.9,2.5,1.9
		c-0.9,0.7-2.1,1.2-3.4,1.2c-0.2,0-0.4,0-0.6,0C541.8,581.2,543.2,581.7,544.7,581.7"/>
</g>
</svg>
